<?xml version="1.0" encoding="UTF-8" standalone="no"?>
<!-- Created with Inkscape (http://www.inkscape.org/) -->

<svg
   width="512"
   height="512"
   viewBox="0 0 512 512"
   version="1.1"
   id="svg5"
   sodipodi:docname="logo.svg"
   xml:space="preserve"
   inkscape:version="1.4.2 (ebf0e940d0, 2025-05-08)"
   inkscape:export-filename="logo.png"
   inkscape:export-xdpi="96"
   inkscape:export-ydpi="96"
   xmlns:inkscape="http://www.inkscape.org/namespaces/inkscape"
   xmlns:sodipodi="http://sodipodi.sourceforge.net/DTD/sodipodi-0.dtd"
   xmlns:xlink="http://www.w3.org/1999/xlink"
   xmlns="http://www.w3.org/2000/svg"
   xmlns:svg="http://www.w3.org/2000/svg"><sodipodi:namedview
     id="namedview1"
     pagecolor="#ffffff"
     bordercolor="#666666"
     borderopacity="1.0"
     inkscape:showpageshadow="2"
     inkscape:pageopacity="0.0"
     inkscape:pagecheckerboard="0"
     inkscape:deskcolor="#d1d1d1"
     inkscape:zoom="0.93912619"
     inkscape:cx="211.89911"
     inkscape:cy="302.40877"
     inkscape:window-width="1503"
     inkscape:window-height="933"
     inkscape:window-x="0"
     inkscape:window-y="0"
     inkscape:window-maximized="1"
     inkscape:current-layer="svg5" /><defs
     id="defs2"><linearGradient
       id="linearGradient1746-0"><stop
         style="stop-color:#2780ff;stop-opacity:1;"
         offset="0"
         id="stop1742" /><stop
         style="stop-color:#88ceff;stop-opacity:1;"
         offset="1"
         id="stop1744" /></linearGradient><linearGradient
       xlink:href="#linearGradient1746-0"
       id="linearGradient1748"
       x1="32.549828"
       y1="258.93243"
       x2="480.03665"
       y2="256.58649"
       gradientUnits="userSpaceOnUse"
       gradientTransform="matrix(0.81804075,0,0,0.81804075,-465.41843,46.581575)" /></defs><g
     id="layer1"
     style="display:inline"
     inkscape:label="design"
     transform="translate(0,-1.5258789e-5)"><g
       id="g3"
       inkscape:label="screen"><rect
         style="display:inline;fill:#a21eff;fill-opacity:1;fill-rule:evenodd;stroke:none;stroke-width:28.2953;stroke-dasharray:none;stroke-opacity:1;paint-order:markers stroke fill"
         id="rect6"
         width="413.7709"
         height="413.7709"
         x="-462.88547"
         y="49.114548"
         ry="56.350231"
         transform="rotate(-90)"
         inkscape:label="border" /><rect
         style="display:inline;fill:url(#linearGradient1748);fill-opacity:1;fill-rule:evenodd;stroke:#210967;stroke-width:25;stroke-dasharray:none;stroke-opacity:1;paint-order:markers stroke fill"
         id="rect75"
         width="365.58267"
         height="365.58267"
         x="-438.79135"
         y="73.208664"
         ry="34.189785"
         transform="rotate(-90)"
         inkscape:label="screen" /></g><g
       id="g2"
       inkscape:label="alert"
       style="display:inline"><path
         style="display:none;fill:#a21eff;fill-opacity:1;stroke:#210967;stroke-width:21.8477;stroke-dasharray:none;stroke-opacity:1;paint-order:markers stroke fill"
         id="path1428"
         d="m 255.99895,42.756594 c 4.98016,0 26.52239,52.84664 26.52239,52.84664 0,0 58.01295,3.649183 59.30586,8.474366 1.29291,4.82518 -42.91413,41.13536 -42.91413,41.13536 0,0 14.47457,55.57612 10.13066,58.08408 -4.34391,2.50796 -53.04478,-27.42357 -53.04478,-27.42357 0,0 -49.51729,30.95105 -53.04477,27.42357 -3.52748,-3.52748 10.13064,-58.08408 10.13064,-58.08408 0,0 -44.2182,-36.26844 -42.91411,-41.13538 1.30409,-4.866935 59.30586,-8.474346 59.30586,-8.474346 0,0 21.54222,-52.84664 26.52238,-52.84664 z"
         sodipodi:nodetypes="zczczczczcz"
         inkscape:label="old star" /><path
         sodipodi:type="star"
         style="display:inline;fill:#a21eff;stroke:#210967;stroke-width:25;stroke-linejoin:round;stroke-miterlimit:0;stroke-opacity:1;paint-order:markers stroke fill"
         id="path1"
         inkscape:flatsided="false"
         sodipodi:sides="5"
         sodipodi:cx="567.54889"
         sodipodi:cy="130.97281"
         sodipodi:r1="102.22268"
         sodipodi:r2="56.120251"
         sodipodi:arg1="-1.5707963"
         sodipodi:arg2="-0.9424778"
         inkscape:rounded="0.09"
         inkscape:randomized="0"
         d="m 567.54889,28.75013 c 5.91313,0 28.20283,53.344791 32.98665,56.820442 4.78383,3.475652 62.40564,8.189972 64.2329,13.813694 1.82725,5.623724 -42.01876,43.306934 -43.84602,48.930654 -1.82726,5.62372 11.49527,61.88212 6.71145,65.35778 -4.78382,3.47565 -54.17185,-26.57964 -60.08498,-26.57964 -5.91313,0 -55.30116,30.05528 -60.08499,26.57963 -4.78382,-3.47565 8.53872,-59.73405 6.71146,-65.35777 -1.82726,-5.62372 -45.67327,-43.30694 -43.84602,-48.930659 1.82726,-5.623722 59.44907,-10.338037 64.23289,-13.813689 4.78383,-3.475651 27.07353,-56.820442 32.98666,-56.820442 z"
         inkscape:transform-center-y="-9.5577867"
         transform="translate(-311.54889)"
         inkscape:label="star" /><rect
         style="display:inline;fill:#210967;fill-opacity:1;stroke-width:1.48378"
         id="rect1532"
         width="172.13821"
         height="29.100903"
         x="169.93089"
         y="233.43787"
         ry="14.550451"
         rx="14.550451"
         inkscape:label="text" /></g><g
       id="g1"
       inkscape:label="chat"
       style="display:inline"><rect
         style="fill:#a21eff;fill-opacity:1;stroke:#210967;stroke-width:22.6211;stroke-dasharray:none;stroke-opacity:1;paint-order:markers stroke fill"
         id="rect1532-3"
         width="158.02007"
         height="33.322826"
         x="34.944016"
         y="305.45154"
         ry="16.661413"
         rx="16.661413"
         inkscape:label="chat1" /><rect
         style="fill:#a21eff;fill-opacity:1;stroke:#210967;stroke-width:22.6211;stroke-dasharray:none;stroke-opacity:1;paint-order:markers stroke fill"
         id="rect1532-8"
         width="158.02007"
         height="33.322826"
         x="34.944031"
         y="351.76132"
         ry="16.661413"
         rx="16.661413"
         inkscape:label="chat2" /><rect
         style="fill:#a21eff;fill-opacity:1;stroke:#210967;stroke-width:22.6211;stroke-dasharray:none;stroke-opacity:1;paint-order:markers stroke fill"
         id="rect1532-6"
         width="158.02007"
         height="33.322826"
         x="34.944031"
         y="398.07108"
         ry="16.661413"
         rx="16.661413"
         inkscape:label="chat3" /></g></g></svg>
